<svg xmlns="http://www.w3.org/2000/svg" width="42" height="34" viewBox="0 0 42 34">
    <g fill="none" fill-rule="evenodd">
        <g fill-rule="nonzero">
            <g>
                <g transform="translate(-883 -585) translate(848 559) translate(35.498 26.093)">
                    <path fill="#FFF" d="M39.684 18.285L32.33 13.89c-.133-.08-.272-.148-.417-.203-.166-.063-.338-.108-.513-.135l-8.317-1.513h-.011c-1.171-.21-2.332.42-2.83 1.534-.497 1.113-.207 2.433.708 3.216l.034.028 2.647 2.263.054.047c.598.53.936 1.306.92 2.12l-.128 5.902c-.06 1.18.629 2.266 1.703 2.679 1.073.413 2.283.06 2.987-.874l3.608-4.64c.514-.658 1.297-1.031 2.117-1.009l3.435.026h.057c1.189-.003 2.228-.83 2.53-2.017.303-1.187-.206-2.435-1.24-3.042l.011.012z"/>
                    <circle cx="33.5" cy="9.5" r="3.5" fill="#FFF"/>
                    <path fill="#FFF" d="M27.03 13.01l-11.4-1.956c-.208-.036-.419-.054-.63-.054-.24 0-.48.024-.716.07L2.948 13.014h-.016c-1.59.283-2.786 1.564-2.92 3.124-.134 1.56.828 3.015 2.347 3.549l.056.018 4.413 1.526h.007l.092.032c1.006.364 1.79 1.146 2.136 2.13v.01l2.51 7.156c.46 1.443 1.833 2.43 3.392 2.442 1.56.011 2.947-.957 3.43-2.394l2.526-7.215c.365-1.023 1.202-1.823 2.264-2.161l4.408-1.526.073-.025c1.517-.546 2.468-2.01 2.319-3.571-.15-1.561-1.36-2.832-2.954-3.099v.001z"/>
                    <circle cx="14.5" cy="4.5" r="4.5" fill="#FFF"/>
                    <path fill="#E2E2E2" d="M23.184 12.04c-1.214-.206-2.418.412-2.934 1.505s-.215 2.389.734 3.157l.036.028 2.744 2.221.056.047c.326.272.582.615.746 1.002l2.015-.703.073-.025c1.493-.541 2.444-1.976 2.338-3.528-.106-1.552-1.243-2.851-2.796-3.195l-3.002-.517-.01.007z"/>
                </g>
            </g>
        </g>
    </g>
</svg>
