<svg xmlns="http://www.w3.org/2000/svg" width="21" height="21" viewBox="0 0 21 21">
    <g fill="none" fill-rule="evenodd">
        <g fill="#FFF" fill-rule="nonzero">
            <g>
                <g>
                    <g>
                        <path d="M18.505 12.52c-.275 0-.499.223-.499.499v4.433c-.001.827-.671 1.498-1.498 1.498H2.497c-.827 0-1.497-.67-1.498-1.498V4.44c0-.827.67-1.497 1.498-1.498H6.93c.276 0 .5-.224.5-.5 0-.275-.224-.499-.5-.499H2.497C1.118 1.945.002 3.061 0 4.44v13.012c.002 1.379 1.118 2.496 2.497 2.497h14.011c1.378-.001 2.495-1.118 2.497-2.497V13.02c0-.276-.224-.5-.5-.5z" transform="translate(-576 -308) translate(217 263) translate(31 27.013) translate(328 18)"/>
                        <path d="M18.807.658c-.878-.877-2.3-.877-3.178 0L6.72 9.567c-.06.06-.105.137-.128.22l-1.171 4.23c-.049.173 0 .358.128.486.127.127.313.176.486.128l4.23-1.172c.083-.023.158-.067.22-.128l8.908-8.909c.876-.878.876-2.3 0-3.178l-.586-.586zM7.808 9.891l7.291-7.29 2.352 2.35-7.291 7.292L7.808 9.89zm-.47.943l1.88 1.879-2.6.72.72-2.599zm11.349-7.118l-.53.53-2.351-2.352.53-.53c.487-.487 1.277-.487 1.765 0l.586.586c.486.488.486 1.278 0 1.766z" transform="translate(-576 -308) translate(217 263) translate(31 27.013) translate(328 18)"/>
                    </g>
                </g>
            </g>
        </g>
    </g>
</svg>
