<svg xmlns="http://www.w3.org/2000/svg" width="26" height="22" viewBox="0 0 26 22">
    <g fill="none" fill-rule="evenodd">
        <g fill="#FFF" fill-rule="nonzero">
            <g>
                <g>
                    <g>
                        <path d="M25.101 5.732c.3-.107.5-.39.499-.708 0-.318-.2-.6-.5-.706L13.05.066c-.162-.057-.338-.057-.5 0L.5 4.318c-.3.105-.5.388-.5.706 0 .318.2.601.499.708l4.773 1.697v4.892c0 .807.843 1.49 2.504 2.03 1.448.47 3.232.728 5.024.728 1.792 0 3.576-.259 5.024-.729 1.661-.539 2.504-1.221 2.504-2.029V7.429l1.97-.701v6.78c-.876.31-1.506 1.146-1.506 2.127 0 .981.63 1.818 1.507 2.127v2.865c0 .414.335.75.75.75.414 0 .75-.336.75-.75v-2.865c.876-.31 1.506-1.146 1.506-2.127 0-.981-.63-1.818-1.506-2.128V6.195l1.302-.463zM23.05 16.39c-.417 0-.757-.34-.757-.756 0-.417.34-.756.757-.756s.756.339.756.756-.34.756-.756.756zM12.8 1.569l9.803 3.459L12.8 8.513 2.997 5.028l9.803-3.46zm6.028 10.639c-.144.145-.659.492-1.82.823-1.239.354-2.733.548-4.208.548s-2.969-.194-4.208-.548c-1.161-.331-1.676-.678-1.82-.823V7.962l5.777 2.053c.081.03.166.044.251.044.085 0 .17-.015.251-.043l5.777-2.054v4.246z" transform="translate(-573 -698) translate(217 263) translate(31 414) translate(325 21)"/>
                    </g>
                </g>
            </g>
        </g>
    </g>
</svg>
