<svg xmlns="http://www.w3.org/2000/svg" width="21" height="17" viewBox="0 0 21 17">
    <g fill="none" fill-rule="evenodd">
        <g fill-rule="nonzero">
            <g>
                <g>
                    <g transform="translate(-575 -514) translate(217 263) translate(31 230) translate(327 21)">
                        <path fill="#FFF" d="M19.842 9.142l-3.678-2.196c-.066-.04-.136-.074-.208-.102-.083-.031-.169-.054-.257-.067l-4.158-.757h-.006c-.585-.105-1.166.21-1.414.767-.25.557-.104 1.216.353 1.608l.018.014 1.323 1.131.027.024c.3.265.468.653.46 1.06l-.064 2.95c-.03.591.314 1.134.851 1.34.537.207 1.142.03 1.494-.436l1.804-2.32c.257-.33.649-.516 1.058-.505l1.718.013h.028c.595-.001 1.114-.415 1.266-1.009.151-.593-.103-1.217-.62-1.52l.005.005z"/>
                        <circle cx="16.75" cy="4.75" r="1.75" fill="#FFF"/>
                        <path fill="#FFF" d="M13.515 6.505l-5.7-.978C7.711 5.51 7.605 5.5 7.5 5.5c-.12 0-.24.012-.358.035l-5.668.972h-.008c-.795.141-1.393.781-1.46 1.562-.067.78.414 1.507 1.174 1.774l.028.009 2.206.763h.004l.046.016c.503.182.895.573 1.068 1.065v.005l1.254 3.578c.23.721.917 1.215 1.697 1.221.78.006 1.473-.479 1.715-1.197l1.262-3.607c.183-.512.602-.912 1.132-1.081l2.205-.763.036-.013c.759-.273 1.234-1.004 1.16-1.785-.075-.78-.68-1.416-1.478-1.55v.001z"/>
                        <circle cx="7.25" cy="2.25" r="2.25" fill="#FFF"/>
                        <path fill="#E2E2E2" d="M11.592 6.02c-.607-.103-1.21.206-1.467.752-.258.547-.107 1.195.367 1.579l.018.014 1.372 1.11.028.024c.163.136.29.308.373.501l1.007-.351.037-.013c.746-.27 1.222-.988 1.169-1.764-.053-.776-.621-1.426-1.398-1.597l-1.5-.259-.006.004z"/>
                    </g>
                </g>
            </g>
        </g>
    </g>
</svg>
