<svg xmlns="http://www.w3.org/2000/svg" width="244" height="188" viewBox="0 0 244 188">
    <defs>
        <linearGradient id="ypm9yeg2ma" x1="0%" x2="100%" y1="50%" y2="50%">
            <stop offset="0%" stop-color="gray" stop-opacity=".25"/>
            <stop offset="53.514%" stop-color="gray" stop-opacity=".12"/>
            <stop offset="100%" stop-color="gray" stop-opacity=".1"/>
        </linearGradient>
    </defs>
    <g fill="none" fill-rule="evenodd">
        <g fill-rule="nonzero">
            <g transform="translate(-598 -358) translate(598 358)">
                <ellipse cx="14.877" cy="43.544" fill="#E0E0E0" rx="17.547" ry="2.632" transform="rotate(-63.611 14.877 43.544)"/>
                <ellipse cx="234.137" cy="152.437" fill="#E0E0E0" rx="17.547" ry="1.788" transform="rotate(-63.611 234.137 152.437)"/>
                <path fill="#F55F44" d="M97.825 101.977H108.35300000000001V137.072H97.825z" transform="rotate(39.547 103.09 119.524)"/>
                <path fill="#000" d="M103.511 105.293H115.357V140.388H103.511z" opacity=".05" transform="rotate(-166.769 109.434 122.84)"/>
                <path fill="#F55F44" d="M104.811 105.443H115.33900000000001V140.538H104.811z" transform="rotate(-166.769 110.076 122.99)"/>
                <path fill="url(#ypm9yeg2ma)" d="M106.092 -24.449H142.941V220.337H106.092z" transform="rotate(-63.611 124.517 97.944)"/>
                <path fill="#F5F5F5" d="M226.356 168.062C222.064 166.003 3.934 57.703 7.078 59.262c12.107-18.478 15.599-31.437 15.599-31.437l219.278 108.8s-7.7 13.514-15.599 31.437z"/>
                <path fill="#000" d="M109.711 78.056H129.89V113.151H109.711z" opacity=".05" transform="rotate(26.389 119.8 95.604)"/>
                <path fill="#F55F44" d="M110.588 78.056H129.013V113.151H110.588z" transform="rotate(26.389 119.8 95.604)"/>
                <path fill="#000" d="M113.266 77.861H125.549V112.956H113.266z" opacity=".05" transform="rotate(26.389 119.408 95.409)"/>
                <path fill="#F55F44" d="M114.144 77.861H124.67200000000001V112.956H114.144z" transform="rotate(26.389 119.408 95.409)"/>
                <circle cx="130.653" cy="181.962" r="1.463" fill="#DBDBDB"/>
                <g fill="#47E6B1" opacity=".5">
                    <path d="M3.697 0H5.197V8.5H3.697z" transform="translate(11 141)"/>
                    <path d="M3.697 0H5.197V8.5H3.697z" transform="translate(11 141) rotate(90 4.447 4.25)"/>
                </g>
                <path fill="#4D8AF0" d="M6.145 26.728c-.856-.373-1.296-1.328-1.024-2.22.021-.066.035-.135.04-.204.025-.406-.22-.78-.6-.92-.382-.141-.81-.015-1.055.31-.041.055-.075.116-.102.18-.373.856-1.328 1.296-2.22 1.024-.067-.021-.135-.035-.204-.04-.406-.025-.78.22-.92.6-.141.382-.016.81.309 1.055.056.041.117.075.18.102.857.373 1.297 1.328 1.025 2.22-.022.067-.035.135-.04.204-.025.406.22.78.6.92.382.141.81.016 1.055-.309.04-.056.075-.117.102-.18.373-.857 1.328-1.297 2.22-1.025.066.022.135.035.204.04.406.025.78-.22.92-.6.141-.382.015-.81-.31-1.055-.055-.04-.116-.075-.18-.102zM147.145 13.228c-.856-.373-1.296-1.328-1.024-2.22.021-.066.035-.135.04-.204.025-.406-.22-.78-.6-.92-.382-.141-.81-.015-1.055.31-.041.055-.075.116-.102.18-.373.856-1.328 1.296-2.22 1.024-.067-.021-.135-.035-.204-.04-.406-.025-.78.22-.92.6-.141.382-.016.81.309 1.055.056.041.117.075.18.102.857.373 1.297 1.328 1.025 2.22-.022.067-.035.135-.04.204-.025.406.22.78.6.92.382.141.81.016 1.055-.309.04-.056.075-.117.102-.18.373-.857 1.328-1.297 2.22-1.025.066.022.135.035.204.04.406.025.78-.22.92-.6.141-.382.015-.81-.31-1.055-.055-.04-.116-.075-.18-.102z" opacity=".5"/>
                <path fill="#82CEC4" d="M139.06 63.92l-2.45-1.343c-.045-.024-.092-.045-.14-.062-.055-.019-.113-.032-.17-.04l-2.773-.463h-.004c-.39-.064-.777.129-.943.47-.165.34-.069.742.236.982l.011.008.882.692.019.014c.2.161.312.399.306.647l-.042 1.804c-.02.361.21.693.567.819.358.126.761.018.996-.267l1.203-1.418c.171-.2.432-.315.705-.308l1.145.007h.019c.397 0 .743-.253.844-.616.101-.363-.069-.745-.414-.93l.004.004zM140.06 159.92l-2.45-1.343c-.045-.024-.092-.045-.14-.062-.055-.019-.113-.032-.17-.04l-2.773-.463h-.004c-.39-.064-.777.129-.943.47-.165.34-.069.742.236.982l.011.008.882.692.019.014c.2.161.312.399.306.647l-.042 1.804c-.02.361.21.693.567.819.358.126.761.018.996-.267l1.203-1.418c.171-.2.432-.315.705-.308l1.145.007h.019c.397 0 .743-.253.844-.616.101-.363-.069-.745-.414-.93l.004.004zM33.56 97.42l-2.45-1.343c-.045-.024-.092-.045-.14-.062-.055-.019-.113-.032-.17-.04l-2.773-.463h-.004c-.39-.064-.777.129-.943.47-.165.34-.069.742.236.982l.011.008.882.692.019.014c.2.161.312.399.306.647l-.042 1.804c-.02.361.21.693.567.819.358.126.761.018.996-.267l1.203-1.418c.171-.2.432-.315.705-.308l1.145.007h.019c.397 0 .743-.253.844-.616.101-.363-.069-.745-.414-.93l.004.004z"/>
                <path fill="#82CEC4" d="M184.56 58.42l-2.45-1.343c-.045-.024-.092-.045-.14-.062-.055-.019-.113-.032-.17-.04l-2.773-.463h-.004c-.39-.064-.777.129-.943.47-.165.34-.069.742.236.982l.011.008.882.692.019.014c.2.161.312.399.306.647l-.042 1.804c-.02.361.21.693.567.819.358.126.761.018.996-.267l1.203-1.418c.171-.2.432-.315.705-.308l1.145.007h.019c.397 0 .743-.253.844-.616.101-.363-.069-.745-.414-.93l.004.004z" transform="rotate(-46 181.5 59.25)"/>
                <path fill="#4D8AF0" d="M197.145 183.728c-.856-.373-1.296-1.328-1.024-2.22.021-.066.035-.135.04-.204.025-.406-.22-.78-.6-.92-.382-.141-.81-.015-1.055.31-.041.055-.075.116-.102.18-.373.856-1.328 1.296-2.22 1.024-.067-.021-.135-.035-.204-.04-.406-.025-.78.22-.92.6-.141.382-.016.81.309 1.055.056.041.117.075.18.102.857.373 1.297 1.328 1.025 2.22-.022.067-.035.135-.04.204-.025.406.22.78.6.92.382.141.81.016 1.055-.309.04-.056.075-.117.102-.18.373-.857 1.328-1.297 2.22-1.025.066.022.135.035.204.04.406.025.78-.22.92-.6.141-.382.015-.81-.31-1.055-.055-.04-.116-.075-.18-.102z" opacity=".5"/>
                <circle cx="239.697" cy="62" r="3" fill="#F55F44" opacity=".5"/>
                <circle cx="173.697" cy="81" r="3" fill="#4D8AF0" opacity=".5"/>
                <circle cx="51.697" cy="170.5" r="3" fill="#47E6B1" opacity=".5"/>
                <circle cx="70.697" cy="3" r="3" fill="#F55F44" opacity=".5"/>
            </g>
        </g>
    </g>
</svg>
