<svg xmlns="http://www.w3.org/2000/svg" width="84" height="67" viewBox="0 0 84 67">
    <g fill="none" fill-rule="evenodd">
        <g fill-rule="nonzero">
            <g transform="translate(-135 -80) translate(135 80)">
                <path fill="#82CEC4" d="M80.851 37.125L66.014 28.54c-.267-.157-.548-.29-.84-.398-.335-.12-.682-.209-1.035-.263l-16.777-2.956h-.025c-2.362-.407-4.702.824-5.704 3-1.003 2.177-.418 4.755 1.426 6.285l.068.056 5.338 4.423.112.093c1.21 1.031 1.89 2.551 1.856 4.14l-.257 11.542c-.122 2.308 1.269 4.428 3.434 5.235 2.166.808 4.605.116 6.025-1.708l7.278-9.07c1.04-1.285 2.617-2.015 4.269-1.973l6.929.05h.114c2.401-.003 4.5-1.622 5.11-3.944.611-2.322-.418-4.765-2.506-5.949l.022.022z"/>
                <circle cx="68.481" cy="19.083" r="6.878" fill="#82CEC4"/>
                <path fill="#84C774" d="M52.846 25.883l-22.289-3.947c-.406-.071-.818-.106-1.231-.106-.47 0-.94.046-1.4.14l-22.16 3.919h-.033C2.625 26.46.286 29.043.024 32.192c-.262 3.148 1.619 6.082 4.589 7.159l.109.039 8.628 3.08.179.064c1.967.735 3.5 2.314 4.177 4.302v.017l4.904 14.44c.903 2.911 3.586 4.904 6.635 4.926 3.048.021 5.76-1.933 6.704-4.831l4.938-14.557c.704-2.07 2.334-3.69 4.406-4.384l8.62-3.08.142-.05c2.963-1.103 4.819-4.055 4.528-7.202-.291-3.148-2.656-5.71-5.77-6.252l.033.02z"/>
                <circle cx="29.326" cy="9.084" r="9.084" fill="#84C774"/>
                <path fill="#32B668" d="M47.337 24.917c-2.362-.407-4.702.824-5.704 3-1.003 2.177-.418 4.756 1.426 6.286l.068.056 5.338 4.423.112.092c.635.541 1.132 1.225 1.45 1.996l3.92-1.4.142-.05c2.903-1.078 4.753-3.935 4.547-7.025-.205-3.09-2.417-5.678-5.437-6.362l-5.837-1.027-.025.011z"/>
            </g>
        </g>
    </g>
</svg>
